<svg width="24" height="24" viewBox="0 0 24 24" fill="none" xmlns="http://www.w3.org/2000/svg">
<path fill-rule="evenodd" clip-rule="evenodd" d="M12 3C7.0293 3 3 7.0293 3 12C3 16.9707 7.0293 21 12 21C16.9707 21 21 16.9707 21 12C21 7.0293 16.9707 3 12 3ZM8.85 9.75C8.85 9.33634 8.93148 8.92672 9.08978 8.54455C9.24808 8.16237 9.48011 7.81512 9.77261 7.52261C10.0651 7.23011 10.4124 6.99808 10.7945 6.83978C11.1767 6.68148 11.5863 6.6 12 6.6C12.4137 6.6 12.8233 6.68148 13.2055 6.83978C13.5876 6.99808 13.9349 7.23011 14.2274 7.52261C14.5199 7.81512 14.7519 8.16237 14.9102 8.54455C15.0685 8.92672 15.15 9.33634 15.15 9.75C15.15 10.5854 14.8181 11.3866 14.2274 11.9774C13.6366 12.5681 12.8354 12.9 12 12.9C11.1646 12.9 10.3634 12.5681 9.77261 11.9774C9.18187 11.3866 8.85 10.5854 8.85 9.75ZM17.6322 16.4856C16.9583 17.3328 16.1018 18.0169 15.1265 18.4869C14.1513 18.9569 13.0826 19.2007 12 19.2C10.9174 19.2007 9.84868 18.9569 8.87346 18.4869C7.89824 18.0169 7.04173 17.3328 6.3678 16.4856C7.8267 15.4389 9.8175 14.7 12 14.7C14.1825 14.7 16.1733 15.4389 17.6322 16.4856Z" fill="#323335" fill-opacity="0.3"/>
</svg>
