<svg width="20" height="20" viewBox="0 0 20 20" fill="none" xmlns="http://www.w3.org/2000/svg">
<path d="M10.1648 2C4.44191 2 1.99983 4.44208 1.99983 10.165C1.99983 15.8879 4.44191 18.33 10.1648 18.33C12.9127 18.33 17.1029 17.9715 17.2803 17.9559C17.641 17.9247 17.9268 17.6382 17.9565 17.2775C17.9721 17.0926 18.3298 12.7206 18.3298 10.165C18.3298 4.44208 15.8878 2 10.1648 2ZM6.8246 11.2784C6.21 11.2784 5.7112 10.7796 5.7112 10.165C5.7112 9.5504 6.21 9.05159 6.8246 9.05159C7.43921 9.05159 7.93801 9.5504 7.93801 10.165C7.93801 10.7796 7.43921 11.2784 6.8246 11.2784ZM10.1648 11.2784C9.55023 11.2784 9.05142 10.7796 9.05142 10.165C9.05142 9.5504 9.55023 9.05159 10.1648 9.05159C10.7794 9.05159 11.2782 9.5504 11.2782 10.165C11.2782 10.7796 10.7794 11.2784 10.1648 11.2784ZM13.5051 11.2784C12.8905 11.2784 12.3917 10.7796 12.3917 10.165C12.3917 9.5504 12.8905 9.05159 13.5051 9.05159C14.1197 9.05159 14.6185 9.5504 14.6185 10.165C14.6185 10.7796 14.1197 11.2784 13.5051 11.2784Z" fill="#323335" fill-opacity="0.3"/>
</svg>
