<svg width="20" height="20" viewBox="0 0 20 20" fill="none" xmlns="http://www.w3.org/2000/svg">
<path fill-rule="evenodd" clip-rule="evenodd" d="M5.92006 4.66698C4.01333 6.08277 3.05997 6.79067 2.68553 7.83634C2.65549 7.92022 2.62847 8.0052 2.60453 8.09111C2.30606 9.162 2.67021 10.3074 3.39852 12.5982C4.12683 14.889 4.49098 16.0344 5.34835 16.7215C5.41713 16.7766 5.48786 16.8292 5.5604 16.879C6.46473 17.5 7.64315 17.5 10 17.5C12.3568 17.5 13.5353 17.5 14.4396 16.879C14.5121 16.8292 14.5829 16.7766 14.6517 16.7215C15.509 16.0344 15.8732 14.889 16.6015 12.5982C17.3298 10.3074 17.6939 9.162 17.3955 8.09111C17.3715 8.0052 17.3445 7.92022 17.3145 7.83634C16.94 6.79068 15.9867 6.08278 14.0799 4.66698C12.1732 3.25118 11.2198 2.54328 10.1311 2.50246C10.0437 2.49918 9.95628 2.49918 9.86894 2.50246C8.78016 2.54328 7.82679 3.25118 5.92006 4.66698ZM8.57003 13.5116C8.27387 13.5116 8.03379 13.757 8.03379 14.0596C8.03379 14.3623 8.27387 14.6077 8.57003 14.6077H11.43C11.7261 14.6077 11.9662 14.3623 11.9662 14.0596C11.9662 13.757 11.7261 13.5116 11.43 13.5116H8.57003Z" fill="#E54362"/>
</svg>
