<svg width="20" height="20" viewBox="0 0 20 20" fill="none" xmlns="http://www.w3.org/2000/svg">
<path d="M10 16.677C7.71282 16.677 5.4359 16.677 3.14872 16.677C2.62564 16.677 2.22564 16.277 2.20513 15.7539C2.19487 15.2001 2.5641 14.7693 3.10769 14.7693C5.11795 14.759 7.13846 14.7488 9.14872 14.7488C11.7128 14.7488 14.2667 14.759 16.8308 14.7488C17.2718 14.7488 17.7231 15.1385 17.7846 15.4975C17.8769 16.0206 17.6103 16.5026 17.1385 16.6565C17.0872 16.677 17.0256 16.677 16.9744 16.677C14.6462 16.677 12.3179 16.677 10 16.677Z" fill="#323335" fill-opacity="0.3"/>
<path d="M16.7692 12.2257C16.4 9.30261 14.1744 6.93338 11.2821 6.37953C11.241 6.36928 11.1897 6.35902 11.1487 6.34876C11.0564 6.32825 10.9949 6.2462 10.9949 6.15389V5.2821C11.0872 5.26158 11.1692 5.24107 11.2513 5.22056C11.6923 5.09748 12 4.6462 11.9487 4.19492C11.9077 3.76415 11.518 3.33338 11.1282 3.32312C10.4103 3.31287 9.69231 3.31287 8.97436 3.32312C8.50256 3.33338 8.12308 3.70261 8.07179 4.16415C8.02051 4.6462 8.30769 5.07697 8.75898 5.2103C8.84103 5.23081 8.92308 5.25133 9.02564 5.27184C9.02564 5.58979 9.0359 5.88722 9.01539 6.19492C9.01539 6.2462 8.92308 6.31799 8.86154 6.32825C6.60513 6.75902 4.94359 7.98979 3.88718 10.0206C3.38462 10.9847 3.15897 12.0308 3.17949 13.1283C3.18974 13.6 3.6 14.0308 4.03077 14.0308H15.8974C16.3692 14.0308 16.7897 13.6308 16.8 13.159C16.8205 12.8616 16.8103 12.5436 16.7692 12.2257ZM14.2769 12.6359C14.2667 12.6359 14.2462 12.6359 14.2359 12.6359C14.0615 12.6359 13.9077 12.5026 13.8769 12.318C13.5897 9.97953 11.6615 9.0462 11.5795 9.00517C11.4051 8.92312 11.3231 8.70774 11.4051 8.53338C11.4872 8.35902 11.7026 8.27697 11.8769 8.35902C11.9692 8.40004 14.2462 9.48722 14.5846 12.2257C14.6154 12.4308 14.4718 12.6052 14.2769 12.6359Z" fill="#323335" fill-opacity="0.3"/>
</svg>
